<svg xmlns="http://www.w3.org/2000/svg" width="22" height="20.995" viewBox="0 0 22 20.995">
  <g id="Envelope_Open_" data-name="Envelope (Open)" transform="translate(0 4.995)">
    <g id="Envelope_Open" data-name="Envelope Open" transform="translate(-277.696 -223.641)">
      <g id="Path_1658" data-name="Path 1658" transform="translate(277.696 223.641)" fill="#fafafa" stroke-linecap="round" stroke-linejoin="round">
        <path d="M 19 15 L 3 15 C 1.897199988365173 15 1 14.1028003692627 1 13 L 1 3.57983660697937 L 1.474300026893616 3.860559940338135 L 10.64727973937988 9.289759635925293 L 11.16748046875 9.597649574279785 L 11.68185997009277 9.280150413513184 L 20.47775077819824 3.850950002670288 L 21 3.528599262237549 L 21 13 C 21 14.1028003692627 20.1028003692627 15 19 15 Z M 20.99999237060547 2.994604110717773 L 20.90562057495117 2.697380065917969 L 20.63747406005859 1.852832198143005 C 20.8648567199707 2.176426887512207 20.99885368347168 2.570209741592407 20.99999237060547 2.994604110717773 Z M 1.017412424087524 2.735530138015747 C 1.052170991897583 2.473619699478149 1.137800335884094 2.22752857208252 1.264027953147888 2.007592439651489 L 1.036520004272461 2.679130077362061 L 1.017412424087524 2.735530138015747 Z" stroke="none"/>
        <path d="M 20 5.32099437713623 L 12.20711040496826 10.13109970092773 C 11.88534736633301 10.32970428466797 11.52107715606689 10.42919921875 11.15658760070801 10.42919921875 C 10.804518699646 10.42919921875 10.45224571228027 10.33635902404785 10.13794040679932 10.15032958984375 L 2 5.333737373352051 L 2 13 C 2 13.55140018463135 2.448600769042969 14 3 14 L 19 14 C 19.55139923095703 14 20 13.55140018463135 20 13 L 20 5.32099437713623 M 3 0 L 1.983640670776367 3 L 11.15662002563477 8.429200172424316 L 19.95251083374023 3 L 19 0 C 20.65685081481934 0 22 1.34315013885498 22 3 L 22 13 C 22 14.65684986114502 20.65685081481934 16 19 16 L 3 16 C 1.343149185180664 16 0 14.65684986114502 0 13 L 0 3 C 0 1.34315013885498 1.343149185180664 0 3 0 Z" stroke="none" fill="#0088cb"/>
      </g>
      <line id="Line_14" data-name="Line 14" x1="9" y1="5" transform="translate(279.5 228.005)" fill="none" stroke="#0088cb" stroke-linecap="round" stroke-width="2"/>
      <line id="Line_15" data-name="Line 15" y1="5" x2="9" transform="translate(289.196 228.005)" fill="none" stroke="#0088cb" stroke-linecap="round" stroke-width="2"/>
      <line id="Line_16" data-name="Line 16" x1="9" y1="5" transform="translate(288.696 220.005)" fill="none" stroke="#0088cb" stroke-linecap="round" stroke-width="2"/>
      <path id="Path_1659" data-name="Path 1659" d="M0,5,9,0" transform="translate(279.5 220.005)" fill="none" stroke="#0088cb" stroke-linecap="round" stroke-width="2"/>
    </g>
  </g>
</svg>
